<svg xmlns="http://www.w3.org/2000/svg" version="1.1" xmlns:xlink="http://www.w3.org/1999/xlink" xmlns:svgjs="http://svgjs.com/svgjs" width="512" height="512" x="0" y="0" viewBox="0 0 32 32" style="enable-background:new 0 0 512 512" xml:space="preserve" class=""><g><path fill="#cbcbcb" d="M16 2a6.007 6.007 0 0 0-6 6v7a6 6 0 0 0 12 0V8a6.007 6.007 0 0 0-6-6zM16 30a1 1 0 0 1-1-1v-5a1 1 0 0 1 2 0v5a1 1 0 0 1-1 1z" data-original="#9e9e9e" class="" opacity="1"></path><g fill="#424242"><path d="M19 30h-6a1 1 0 0 1 0-2h6a1 1 0 0 1 0 2zM16 25c-4.962 0-9-3.589-9-8a1 1 0 0 1 2 0c0 3.309 3.14 6 7 6s7-2.691 7-6a1 1 0 0 1 2 0c0 4.411-4.037 8-9 8zM21.91 7H18a1 1 0 0 0 0 2h4a11.344 11.344 0 0 0-.09-2zM15 8a1.003 1.003 0 0 1-1 1h-4a11.344 11.344 0 0 1 .09-2H14a1.003 1.003 0 0 1 1 1zM22 10v2h-4a1 1 0 0 1 0-2zM15 11a1.003 1.003 0 0 1-1 1h-4v-2h4a1.003 1.003 0 0 1 1 1zM22 13v2h-4a1 1 0 0 1 0-2zM15 14a1.003 1.003 0 0 1-1 1h-4v-2h4a1.003 1.003 0 0 1 1 1z" fill="#f7f7f7" data-original="#424242" class="" opacity="1"></path></g><path fill="#f44336" d="M29.707 2.293a1 1 0 0 0-1.414 0l-26 26a1 1 0 0 0 1.414 1.414l26-26a1 1 0 0 0 0-1.414z" data-original="#f44336" class=""></path></g></svg>
