<?xml version="1.0" encoding="utf-8"?>
<svg viewBox="0 0 500 500" xmlns="http://www.w3.org/2000/svg">
  <path d="M 212.61 219.082 C 237.299 232.514 237.299 267.277 212.61 280.687 L 63.501 361.789 C 39.497 374.834 10 357.841 10 330.972 L 10 168.807 C 10 141.93 39.497 124.936 63.501 137.982 L 212.61 219.082 Z" fill="#5fa7d3"/>
  <path d="M 257.23 180.054 C 257.23 158.104 257.23 147.14 264.05 140.319 C 270.868 133.5 281.843 133.5 303.784 133.5 C 325.734 133.5 336.709 133.5 343.517 140.319 C 350.338 147.14 350.338 158.104 350.338 180.054 L 350.338 319.716 C 350.338 341.668 350.338 352.632 343.517 359.45 C 336.709 366.27 325.734 366.27 303.784 366.27 C 281.843 366.27 270.868 366.27 264.05 359.45 C 257.23 352.632 257.23 341.668 257.23 319.716 L 257.23 180.054 Z" fill="#5fa7d3"/>
  <path d="M 396.892 180.054 C 396.892 158.104 396.892 147.14 403.711 140.319 C 410.532 133.5 421.507 133.5 443.446 133.5 C 465.396 133.5 476.371 133.5 483.181 140.319 C 490 147.14 490 158.104 490 180.054 L 490 319.716 C 490 341.668 490 352.632 483.181 359.45 C 476.371 366.27 465.396 366.27 443.446 366.27 C 421.507 366.27 410.532 366.27 403.711 359.45 C 396.892 352.632 396.892 341.668 396.892 319.716 L 396.892 180.054 Z" fill="#5fa7d3"/>
</svg>