<svg xmlns="http://www.w3.org/2000/svg" version="1.1" xmlns:xlink="http://www.w3.org/1999/xlink" xmlns:svgjs="http://svgjs.com/svgjs" width="512" height="512" x="0" y="0" viewBox="0 0 511.999 511.999" style="enable-background:new 0 0 512 512" xml:space="preserve" class=""><g><path fill="#ff5b5b" d="m470.012 256 37.594-37.594c5.858-5.857 5.858-15.355 0-21.213-5.857-5.857-15.355-5.857-21.213 0L448.8 234.788l-37.594-37.594c-5.856-5.858-15.354-5.858-21.213 0-5.858 5.857-5.858 15.355 0 21.213L427.587 256l-37.594 37.594c-5.858 5.857-5.858 15.355 0 21.213 2.929 2.929 6.768 4.394 10.606 4.394s7.678-1.465 10.606-4.394l37.594-37.594 37.593 37.594c2.929 2.93 6.768 4.394 10.606 4.394s7.678-1.465 10.606-4.394c5.858-5.857 5.858-15.355 0-21.213z" data-original="#ff5b5b"></path><path fill="#ff0059" d="M470.012 256h-42.426l.001.001-37.594 37.594c-5.858 5.857-5.858 15.355 0 21.213 2.929 2.929 6.768 4.394 10.606 4.394s7.678-1.465 10.606-4.394l37.594-37.594 37.593 37.594c2.929 2.93 6.768 4.394 10.606 4.394s7.678-1.465 10.606-4.394c5.858-5.857 5.858-15.355 0-21.213z" data-original="#ff0059"></path><path fill="#c5e1e6" d="M319.026 16.547c-8.001 0-16.221 2.775-24.434 8.251l-159.38 106.254a15 15 0 0 0-6.68 12.48v224.934c0 5.016 2.507 9.698 6.68 12.48l159.381 106.255c8.212 5.474 16.432 8.249 24.432 8.25h.004c9.881 0 18.573-4.299 24.477-12.104 5.12-6.771 7.827-15.939 7.827-26.513V55.166c0-26.678-16.226-38.619-32.307-38.619z" data-original="#c5e1e6" class="" opacity="1"></path><path fill="#8db9c4" d="M128.533 256v112.467c0 5.016 2.507 9.698 6.68 12.48l159.381 106.255c8.212 5.474 16.432 8.249 24.432 8.25h.004c9.881 0 18.573-4.299 24.477-12.104 5.12-6.771 7.827-15.939 7.827-26.513V256z" data-original="#8db9c4" class=""></path><path fill="#ff9f00" d="M55.166 128.533C24.747 128.533 0 153.281 0 183.701v144.6c0 30.419 24.747 55.166 55.166 55.166h83.826V128.533z" data-original="#ffd400" class="" opacity="1"></path><path fill="#ff641a" d="M0 328.3c0 30.419 24.747 55.166 55.166 55.166h83.826V256H0z" data-original="#ff9f04" class="" opacity="1"></path></g></svg>
