<svg xmlns="http://www.w3.org/2000/svg" version="1.1" xmlns:xlink="http://www.w3.org/1999/xlink" xmlns:svgjs="http://svgjs.com/svgjs" width="512" height="512" x="0" y="0" viewBox="0 0 512 512" style="enable-background:new 0 0 512 512" xml:space="preserve" class=""><g><path fill="#1de8f1" d="M426.414 441.414c-3.84 0-7.678-1.465-10.607-4.394-5.857-5.857-5.857-15.355 0-21.213 88.117-88.119 88.117-231.498 0-319.615-5.857-5.857-5.857-15.355 0-21.213s15.355-5.857 21.213 0C485.371 123.331 512 187.618 512 255.999s-26.629 132.669-74.98 181.021a14.952 14.952 0 0 1-10.606 4.394z" data-original="#1de8f1" class=""></path><path fill="#a8ebfa" d="M380.969 395.969c-3.84 0-7.678-1.464-10.607-4.394-5.857-5.858-5.857-15.355 0-21.213C400.91 339.815 417.734 299.2 417.734 256c0-43.201-16.824-83.816-47.373-114.364-5.857-5.857-5.857-15.354 0-21.213 5.857-5.857 15.355-5.857 21.213 0 36.215 36.214 56.16 84.362 56.16 135.577 0 51.214-19.945 99.362-56.16 135.575a14.95 14.95 0 0 1-10.605 4.394z" data-original="#a8ebfa"></path><path fill="#c5e1e6" d="M313.969 19.938c-11.27-6.24-25.584-4.906-39.271 3.663L103.439 130.819c-7.021 4.396-9.15 13.652-4.754 20.674 2.844 4.542 7.723 7.021 12.715 7.025v194.964c-4.992.005-9.869 2.483-12.715 7.024-4.396 7.021-2.268 16.277 4.754 20.674l171.258 107.219c7.998 5.006 16.207 7.543 23.898 7.543 5.475 0 10.688-1.285 15.373-3.88 11.27-6.241 17.734-19.081 17.734-35.229V55.166c.001-16.147-6.464-28.987-17.733-35.228z" data-original="#c5e1e6"></path><path fill="#8db9c4" d="M111.4 256.004v97.479c-4.992.005-9.869 2.483-12.715 7.024-4.396 7.021-2.268 16.277 4.754 20.674L274.697 488.4c7.998 5.006 16.207 7.543 23.898 7.543 5.475 0 10.688-1.285 15.373-3.88 11.27-6.241 17.734-19.081 17.734-35.229v-200.83z" data-original="#8db9c4"></path><path fill="#ff9f00" d="M55.166 128.533C24.746 128.533 0 153.28 0 183.699v144.602c0 30.419 24.746 55.166 55.166 55.166H111.4V128.533z" data-original="#ff9f00"></path><path fill="#00acb3" d="M481.895 256.004c0 57.873-22.029 115.745-66.088 159.804-5.857 5.857-5.857 15.355 0 21.213a14.956 14.956 0 0 0 10.607 4.394c3.838 0 7.678-1.465 10.605-4.394C485.371 388.669 512 324.383 512 256.004z" data-original="#00acb3" class=""></path><path fill="#76e2f8" d="M370.361 370.362c-5.857 5.857-5.857 15.354 0 21.213a14.952 14.952 0 0 0 10.607 4.394c3.838 0 7.678-1.465 10.605-4.394 36.215-36.212 56.16-84.358 56.16-135.571h-30c.001 43.199-16.823 83.812-47.372 114.358z" data-original="#76e2f8" class=""></path><path fill="#ff641a" d="M0 328.301c0 30.419 24.746 55.166 55.166 55.166H111.4V256.004H0z" data-original="#ff641a"></path></g></svg>
